# AST/ASF file generated using VICON BodyLanguage
# -----------------------------------------------
:version 1.10
:name VICON
:units
  mass 1.0
  length 0.45
  angle deg
:documentation
   .ast/.asf automatically generated from VICON data using
   VICON BodyBuilder and BodyLanguage model FoxedUp or BRILLIANT.MOD
:root
   order TX TY TZ RX RY RZ
   axis XYZ
   position 0 0 0  
   orientation 0 0 0 
:bonedata
  begin
     id 1 
     name lhipjoint
     direction 0.624716 -0.669793 0.401383 
     length 2.38238 
     axis 0 0 0  XYZ
  end
  begin
     id 2 
     name lfemur
     direction 0.34202 -0.939693 0  
     length 6.4574  
     axis 0 0 20  XYZ
    dof rx ry rz
    limits (-160.0 20.0)
           (-70.0 70.0)
           (-60.0 70.0)
  end
  begin
     id 3 
     name ltibia
     direction 0.34202 -0.939693 0   
     length 7.68739   
     axis 0 0 20   XYZ
    dof rx
    limits (-10.0 170.0)
  end
  begin
     id 4 
     name lfoot
     direction 0.0681309 -0.187188 0.979959   
     length 2.46615   
     axis -90 7.62852e-016 20   XYZ
    dof rx rz
    limits (-45.0 90.0)
           (-70.0 20.0)
  end
  begin
     id 5 
     name ltoes
     direction 1.53566e-011 -4.21819e-011 1   
     length 1.2376   
     axis -90 7.62852e-016 20   XYZ
    dof rx
    limits (-90.0 20.0)
  end
  begin
     id 6 
     name rhipjoint
     direction -0.644473 -0.655875 0.393043   
     length 2.43293  
     axis 0 0 0  XYZ 
  end
  begin
     id 7 
     name rfemur
     direction -0.34202 -0.939693 0   
     length 6.7025   
     axis 0 0 -20   XYZ
    dof rx ry rz
    limits (-160.0 20.0)
           (-70.0 70.0)
           (-70.0 60.0)
  end
  begin
     id 8 
     name rtibia
     direction -0.34202 -0.939693 0   
     length 7.80547   
     axis 0 0 -20   XYZ
    dof rx
    limits (-10.0 170.0)
 end
 begin
     id 9 
     name rfoot
     direction -0.0756734 -0.207911 0.975216   
     length 2.40315  
     axis -90 -7.62852e-016 -20   XYZ
    dof rx rz
    limits (-45.0 90.0)
           (-20.0 70.0)
  end
  begin
     id 10 
     name rtoes
     direction -1.5353e-011 -4.21879e-011 1   
     length 1.20477   
     axis -90 -7.62852e-016 -20   XYZ
    dof rx
    limits (-90.0 20.0)
  end
  begin
     id 11 
     name lowerback
     direction 0.0160353 0.987463 -0.157037   
     length 2.18572   
     axis 0 0 0   XYZ
    dof rx ry rz
    limits (-20.0 45.0)
           (-30.0 30.0)
           (-30.0 30.0)
  end
  begin
     id 12 
     name upperback
     direction -0.00499661 0.999756 0.0215076   
     length 2.18016   
     axis 0 0 0   XYZ
    dof rx ry rz
    limits (-20.0 45.0)
           (-30.0 30.0)
           (-30.0 30.0)
  end
  begin
     id 13 
     name thorax
     direction -0.00921346 0.995333 0.0960619   
     length 2.24923   
     axis 0 0 0   XYZ
    dof rx ry rz
    limits (-20.0 45.0)
           (-30.0 30.0)
           (-30.0 30.0)
  end
  begin
     id 14 
     name lowerneck
     direction 0.0274184 0.991181 0.12965   
     length 1.70911   
     axis 0 0 0   XYZ
    dof rx ry rz
    limits (-20.0 45.0)
           (-30.0 30.0)
           (-30.0 30.0)
  end
  begin
     id 15 
     name upperneck
     direction 0.0015627 0.999959 -0.00893559   
     length 1.69312   
     axis 0 0 0   XYZ
    dof rx ry rz
    limits (-20.0 45.0)
           (-30.0 30.0)
           (-30.0 30.0)
  end
  begin
     id 16
     name head
     direction -0.00230242 0.999856 -0.0168327  
     length 1.80241  
     axis 0 0 0   XYZ
    dof rx ry rz
    limits (-20.0 45.0)
           (-30.0 30.0)
           (-30.0 30.0)
  end
  begin
     id 17 
     name lclavicle
     direction 0.955523 0.290741 -0.0494489  
     length 3.84275  
     axis 0 0 0   XYZ
    dof ry rz
    limits (-20.0 10.0)
           (0.0 20.0)
  end
  begin
     id 18 
     name lhumerus
     direction 1 -4.48967e-011 -3.18382e-028   
     length 5.17714   
     axis 180 -30 -90   XYZ
    dof rx ry rz
    limits (-60.0 90.0)
           (-90.0 90.0)
           (-90.0 90.0)
  end
  begin
     id 19
     name lradius
     direction 1 -4.48968e-011 -2.22911e-027   
     length 3.43679   
     axis 180 -30 -90   XYZ
    dof rx
    limits (-10.0 170.0)
  end
  begin
     id 20
     name lwrist
     direction 1 -4.48951e-011 -6.32245e-027   
     length 1.7184   
     axis 3.57107e-015 90 90   XYZ
    dof ry
    limits (-180.0 0.0)
 end
  begin
     id 21 
     name lhand
     direction 1 -4.48924e-011 -1.26431e-026   
     length 0.573117   
     axis 8.06912e-015 90 90   XYZ
    dof rx rz
    limits (-90.0 90.0)
           (-45.0 45.0)
  end
  begin
     id 22 
     name lfingers
     direction 1 -4.49001e-011 -2.52965e-026   
     length 0.462062   
     axis 1.61381e-014 90 90   XYZ
    dof rx
    limits (0.0 90.0)
  end
  begin
     id 23
     name lthumb
     direction 0.707107 -6.35008e-011 0.707107   
     length 0.663431   
     axis -90 45 -1.62303e-014   XYZ
    dof rx rz
    limits (-45.0 45.0)
           (-45.0 45.0)
  end
  begin
     id 24 
     name rclavicle
     direction -0.963917 0.256881 -0.0698287   
     length 3.73057  
     axis 0 0 0   XYZ 
    dof ry rz
    limits (-10.0 20.0)
           (-20.0 0.0)
  end
  begin
     id 25 
     name rhumerus
     direction -1 -4.48962e-011 -2.73982e-027  
     length 5.23908   
     axis 180 30 90   XYZ
    dof rx ry rz
    limits (-90.0 60.0)
           (-90.0 90.0)
           (-90.0 90.0)
  end
  begin
     id 26 
     name rradius
     direction -1 -4.48968e-011 -4.33218e-027   
     length 3.46485   
     axis 180 30 90   XYZ
    dof rx
    limits (-10.0 170.0)
  end
  begin
     id 27 
     name rwrist
     direction -1 -4.48989e-011 -6.32372e-027   
     length 1.73243   
     axis 3.57107e-015 -90 -90   XYZ
    dof ry
    limits (-180.0 0.0)
  end
  begin
     id 28
     name rhand
     direction -1 -4.48948e-011 -1.26448e-026   
     length 0.608752   
     axis 8.06912e-015 -90 -90   XYZ
    dof rx rz
    limits (-90.0 90.0)
           (-45.0 45.0)
  end
  begin
     id 29
     name rfingers
     direction -1 -4.48962e-011 -2.52913e-026   
     length 0.490792   
     axis 1.61381e-014 -90 -90   XYZ
    dof rx
    limits (0.0 90.0)
  end
  begin
     id 30
     name rthumb
     direction -0.707107 -6.34878e-011 0.707107   
     length 0.704682   
     axis -90 -45 1.62303e-014   XYZ
    dof rx rz
    limits (-45.0 45.0)
           (-45.0 45.0)
  end
:hierarchy
  begin
    root lhipjoint rhipjoint lowerback
    lhipjoint lfemur
    lfemur ltibia
    ltibia lfoot
    lfoot ltoes
    rhipjoint rfemur
    rfemur rtibia
    rtibia rfoot
    rfoot rtoes
    lowerback upperback
    upperback thorax
    thorax lowerneck lclavicle rclavicle
    lowerneck upperneck
    upperneck head
    lclavicle lhumerus
    lhumerus lradius
    lradius lwrist
    lwrist lhand lthumb
    lhand lfingers
    rclavicle rhumerus
    rhumerus rradius
    rradius rwrist
    rwrist rhand rthumb
    rhand rfingers
  end

#!OML:ASF G:\JayActor3\Patient Classification 1\Patient 1\Session 6\male.ASF
:FULLY-SPECIFIED
:DEGREES
1
root 9.10245 14.3367 -4.07888 45.6645 -88.3723 -36.088
lowerback 19.2737 -1.34208 2.15648
upperback 1.00923 -1.40649 -0.163
thorax -9.78146 -0.806074 -1.01674
lowerneck -13.6387 0.819931 3.06049
upperneck -0.313294 0.488216 -0.21375
head 2.26676 0.189268 -0.575232
rclavicle -3.97569e-015 -4.17448e-015
rhumerus 24.7659 9.2333 -64.271
rradius 74.8645
rwrist 17.9381
rhand -0.951907 -10.4153
rfingers 7.12502
rthumb 24.6783 -38.8439
lclavicle -3.97569e-015 -4.17448e-015
lhumerus 19.9018 -10.9775 63.2923
lradius 75.7859
lwrist -0.772159
lhand -5.6895 16.0326
lfingers 7.12502
lthumb 20.1308 45.0096
rfemur -53.4353 -12.9815 22.8811
rtibia 76.8674
rfoot -31.1901 -9.73032
rtoes -13.5183
lfemur -52.0077 15.3835 -16.9468
ltibia 71.1049
lfoot -26.0096 1.96034
ltoes -12.0901
2
root 9.10844 14.3312 -4.08288 45.6668 -88.3044 -36.0826
lowerback 19.315 -1.36036 2.19679
upperback 0.995971 -1.41912 -0.150567
thorax -9.82028 -0.813783 -1.02176
lowerneck -13.605 0.811699 3.06495
upperneck -0.343073 0.478171 -0.223071
head 2.25039 0.183538 -0.579503
rclavicle -5.31749e-015 -1.2921e-014
rhumerus 24.7587 9.25746 -64.2637
rradius 74.8695
rwrist 17.8422
rhand -1.05304 -10.4314
rfingers 7.12502
rthumb 24.5814 -38.8733
lclavicle -5.31749e-015 -1.2921e-014
lhumerus 19.8918 -10.9607 63.3329
lradius 75.7974
lwrist -0.757547
lhand -5.70544 15.9979
lfingers 7.12502
lthumb 20.1155 44.9765
rfemur -53.503 -13.0141 22.9596
rtibia 76.938
rfoot -31.1831 -9.75399
rtoes -13.5978
lfemur -52.1062 15.359 -16.8952
ltibia 71.184
lfoot -25.9925 1.97409
ltoes -12.137
3
root 9.11458 14.3257 -4.08612 43.2183 -88.2661 -33.5994
lowerback 19.4571 -1.38845 2.1476
upperback 0.89265 -1.4578 -0.132635
thorax -10.0139 -0.830114 -0.959701
lowerneck -13.5606 0.81041 3.02176
upperneck -0.285687 0.486225 -0.209074
head 2.26152 0.189545 -0.566995
rclavicle -6.41081e-015 1.47101e-014
rhumerus 24.6492 9.33855 -64.2729
rradius 74.9077
rwrist 17.8177
rhand -0.986194 -10.3988
rfingers 7.12502
rthumb 24.6454 -38.8319
lclavicle -6.41081e-015 1.47101e-014
lhumerus 19.7966 -10.9771 63.4121
lradius 75.7571
lwrist -0.7472
lhand -5.71184 15.9801
lfingers 7.12502
lthumb 20.1093 44.9593
rfemur -53.6154 -13.0915 22.9498
rtibia 77.0211
rfoot -31.1883 -9.75339
rtoes -13.6112
lfemur -52.2216 15.2839 -16.939
ltibia 71.2467
lfoot -25.9907 1.97131
ltoes -12.0266
4
root 9.11886 14.3207 -4.09018 42.2846 -88.239 -32.6674
lowerback 19.3363 -1.38858 2.17113
upperback 0.992771 -1.46196 -0.158512
thorax -9.83684 -0.833145 -1.00361
lowerneck -13.5848 0.79409 3.01878
upperneck -0.399122 0.460183 -0.178484
head 2.22679 0.174906 -0.557902
rclavicle 1.63997e-015 1.86858e-014
rhumerus 24.7601 9.22244 -64.2903
rradius 74.9117
rwrist 17.8076
rhand -0.988661 -10.4304
rfingers 7.12502
rthumb 24.6431 -38.8638
lclavicle 1.63997e-015 1.86858e-014
lhumerus 19.9783 -10.9629 63.3884
lradius 75.7534
lwrist -0.753825
lhand -5.68238 16.0242
lfingers 7.12502
lthumb 20.1377 45.0005
rfemur -53.668 -13.0934 22.9588
rtibia 77.092
rfoot -31.2158 -9.71734
rtoes -13.4321
lfemur -52.2859 15.2256 -16.9321
ltibia 71.3093
lfoot -25.9897 2.02554
ltoes -12.0864
5
root 9.12401 14.3152 -4.09415 41.2566 -88.193 -31.6266
lowerback 19.3301 -1.40265 2.1794
upperback 1.00434 -1.47947 -0.160944
thorax -9.82148 -0.841802 -1.0064
lowerneck -13.5716 0.785764 3.01069
upperneck -0.443143 0.449616 -0.16398
head 2.20913 0.169223 -0.552296
rclavicle 6.16232e-015 1.19271e-015
rhumerus 24.7694 9.19453 -64.3087
rradius 74.9273
rwrist 17.7888
rhand -0.990113 -10.4358
rfingers 7.12502
rthumb 24.6417 -38.8694
lclavicle 6.16232e-015 1.19271e-015
lhumerus 20.0254 -10.964 63.4077
lradius 75.7502
lwrist -0.764818
lhand -5.67333 16.0462
lfingers 7.12502
lthumb 20.1464 45.0215
rfemur -53.7411 -13.1145 22.9807
rtibia 77.1663
rfoot -31.2386 -9.69802
rtoes -13.3168
lfemur -52.3758 15.1647 -16.9238
ltibia 71.3747
lfoot -25.9831 2.05205
ltoes -12.0839
6
root 9.12875 14.3097 -4.09825 40.255 -88.1485 -30.6172
lowerback 19.322 -1.4158 2.18363
upperback 1.01882 -1.49688 -0.164099
thorax -9.80174 -0.850239 -1.00778
lowerneck -13.5574 0.777994 3.00717
upperneck -0.487007 0.439143 -0.150074
head 2.19137 0.163575 -0.547677
rclavicle -8.94531e-015 1.03368e-014
rhumerus 24.7744 9.16304 -64.3338
rradius 74.9434
rwrist 17.7809
rhand -0.990025 -10.4391
rfingers 7.12502
rthumb 24.6418 -38.8727
lclavicle -8.94531e-015 1.03368e-014
lhumerus 20.0675 -10.9696 63.4244
lradius 75.7546
lwrist -0.785676
lhand -5.65966 16.0765
lfingers 7.12502
lthumb 20.1595 45.0505
rfemur -53.8045 -13.1267 22.9978
rtibia 77.2365
rfoot -31.2658 -9.67726
rtoes -13.1763
lfemur -52.4572 15.1033 -16.9145
ltibia 71.4398
lfoot -25.9786 2.07924
ltoes -12.0802
7
root 9.13284 14.3044 -4.10231 39.4775 -88.1058 -29.8398
lowerback 19.3152 -1.42701 2.19072
upperback 1.0353 -1.51119 -0.167374
thorax -9.78049 -0.85735 -1.01178
lowerneck -13.5403 0.770585 3.00716
upperneck -0.528 0.428768 -0.135429
head 2.17412 0.158077 -0.543429
rclavicle 6.01324e-015 -1.27222e-014
rhumerus 24.7716 9.12982 -64.3635
rradius 74.9591
rwrist 17.7789
rhand -1.00085 -10.4405
rfingers 7.12502
rthumb 24.6314 -38.8755
lclavicle 6.01324e-015 -1.27222e-014
lhumerus 20.1046 -10.9792 63.4417
lradius 75.7636
lwrist -0.815162
lhand -5.63982 16.1065
lfingers 7.12502
lthumb 20.1786 45.0785
rfemur -53.8529 -13.1278 23.0157
rtibia 77.3031
rfoot -31.297 -9.66339
rtoes -13.0409
lfemur -52.5249 15.0474 -16.898
ltibia 71.5045
lfoot -25.9768 2.10656
ltoes -12.0831
8
root 9.13615 14.2995 -4.10618 38.732 -88.069 -29.1009
lowerback 19.323 -1.43705 2.19201
upperback 1.043 -1.52453 -0.170048
thorax -9.7769 -0.863809 -1.0117
lowerneck -13.5202 0.76417 3.00573
upperneck -0.552066 0.420349 -0.118523
head 2.16204 0.154025 -0.538124
rclavicle -3.59303e-014 -1.92821e-014
rhumerus 24.7505 9.10693 -64.395
rradius 74.9769
rwrist 17.7821
rhand -1.01649 -10.4369
rfingers 7.12502
rthumb 24.6164 -38.8739
lclavicle -3.59303e-014 -1.92821e-014
lhumerus 20.1213 -10.9966 63.4622
lradius 75.774
lwrist -0.844622
lhand -5.61574 16.1332
lfingers 7.12502
lthumb 20.2017 45.1027
rfemur -53.8878 -13.124 23.0267
rtibia 77.3654
rfoot -31.3287 -9.65959
rtoes -12.9338
lfemur -52.5763 14.9957 -16.883
ltibia 71.5643
lfoot -25.9776 2.13197
ltoes -12.0797
9
root 9.13884 14.295 -4.10985 38.0354 -88.0407 -28.4142
lowerback 19.3338 -1.44378 2.1888
upperback 1.04864 -1.53446 -0.173882
thorax -9.77705 -0.868504 -1.01118
lowerneck -13.5035 0.756948 3.00256
upperneck -0.563661 0.411112 -0.0994145
head 2.15478 0.149889 -0.531894
rclavicle 2.68359e-015 9.93923e-016
rhumerus 24.7233 9.08556 -64.4258
rradius 74.9944
rwrist 17.7908
rhand -1.03536 -10.4317
rfingers 7.12502
rthumb 24.5983 -38.8712
lclavicle 2.68359e-015 9.93923e-016
lhumerus 20.1338 -11.0187 63.4852
lradius 75.7828
lwrist -0.866711
lhand -5.58993 16.1496
lfingers 7.12502
lthumb 20.2265 45.1165
rfemur -53.9149 -13.1144 23.0315
rtibia 77.424
rfoot -31.357 -9.66734
rtoes -12.8531
lfemur -52.616 14.9515 -16.8717
ltibia 71.6194
lfoot -25.9806 2.15662
ltoes -12.0841
